<svg width="28" height="28" viewBox="0 0 28 28" fill="none" xmlns="http://www.w3.org/2000/svg">
  <path opacity="0.12" d="M4 9.55556C4 6.48109 4 4.94385 4.75736 3.90693C5.13137 3.39379 5.62257 2.96577 6.1967 2.65246C7.31241 2 8.87592 2 12.0029 2H15.9971C19.1241 2 20.6876 2 21.8033 2.65246C22.3774 2.96577 22.8686 3.39379 23.2426 3.90693C24 4.94385 24 6.48109 24 9.55556V18.4444C24 21.5189 24 23.0561 23.2426 24.0931C22.8686 24.6062 22.3774 25.0342 21.8033 25.3475C20.6876 26 19.1241 26 15.9971 26H12.0029C8.87592 26 7.31241 26 6.1967 25.3475C5.62257 25.0342 5.13137 24.6062 4.75736 24.0931C4 23.0561 4 21.5189 4 18.4444V9.55556Z" fill="#37A7A5"/>
  <path d="M11.5 10.2908C11.5 9.2528 11.5 8.73383 11.7883 8.50402C12.0766 8.27422 12.5408 8.47778 13.4692 8.88491L18.6002 11.1312C19.6137 11.5795 20.1205 11.8036 20.1205 12.2454C20.1205 12.6872 19.6137 12.9113 18.6002 13.3596L13.4692 15.6059C12.5408 16.013 12.0766 16.2166 11.7883 15.9868C11.5 15.757 11.5 15.238 11.5 14.2V10.2908Z" fill="#0F172A"/>
</svg>
